<?xml version="1.0" encoding="us-ascii" standalone="no"?><svg xmlns="http://www.w3.org/2000/svg" xmlns:xlink="http://www.w3.org/1999/xlink" contentStyleType="text/css" height="332px" preserveAspectRatio="none" style="width:1724px;height:332px;background:#FFFFFF;" version="1.1" viewBox="0 0 1724 332" width="1724px" zoomAndPan="magnify"><defs/><g><!--entity ext_sensor--><g id="elem_ext_sensor"><rect fill="#B0C4DE" height="77.2038" rx="2.5" ry="2.5" style="stroke:#181818;stroke-width:0.5;" width="115" x="7" y="75.809"/><text fill="#000000" font-family="sans-serif" font-size="14" font-style="italic" lengthAdjust="spacing" textLength="66" x="31.5" y="100.7749">&#171;external&#187;</text><text fill="#000000" font-family="sans-serif" font-size="14" lengthAdjust="spacing" textLength="93" x="17" y="119.8429">Sensor Nodes</text><text fill="#000000" font-family="sans-serif" font-size="14" lengthAdjust="spacing" textLength="95" x="17" y="138.9108">(ESP32 + GSM)</text></g><!--entity ext_dash--><g id="elem_ext_dash"><rect fill="#B0C4DE" height="58.1358" rx="2.5" ry="2.5" style="stroke:#181818;stroke-width:0.5;" width="144" x="1574" y="88.309"/><text fill="#000000" font-family="sans-serif" font-size="14" font-style="italic" lengthAdjust="spacing" textLength="66" x="1613" y="113.2749">&#171;external&#187;</text><text fill="#000000" font-family="sans-serif" font-size="14" lengthAdjust="spacing" textLength="124" x="1584" y="132.3429">Mobile Dashboard</text></g><!--entity ext_gate--><g id="elem_ext_gate"><rect fill="#B0C4DE" height="58.1358" rx="2.5" ry="2.5" style="stroke:#181818;stroke-width:0.5;" width="152" x="1247" y="182.309"/><text fill="#000000" font-family="sans-serif" font-size="14" font-style="italic" lengthAdjust="spacing" textLength="66" x="1290" y="207.2749">&#171;external&#187;</text><text fill="#000000" font-family="sans-serif" font-size="14" lengthAdjust="spacing" textLength="132" x="1257" y="226.3429">SMS/Email Gateway</text></g><!--entity p1--><g id="elem_p1"><rect fill="#B0C4DE" height="39.0679" rx="2.5" ry="2.5" style="stroke:#181818;stroke-width:0.5;" width="183" x="322" y="94.809"/><text fill="#000000" font-family="sans-serif" font-size="14" lengthAdjust="spacing" textLength="163" x="332" y="119.7749">1.0 Capture Sensor Data</text></g><!--entity p2--><g id="elem_p2"><rect fill="#B0C4DE" height="39.0679" rx="2.5" ry="2.5" style="stroke:#181818;stroke-width:0.5;" width="122" x="674" y="179.809"/><text fill="#000000" font-family="sans-serif" font-size="14" lengthAdjust="spacing" textLength="102" x="684" y="204.7749">2.0 Process ARI</text></g><!--entity p3--><g id="elem_p3"><rect fill="#B0C4DE" height="39.0679" rx="2.5" ry="2.5" style="stroke:#181818;stroke-width:0.5;" width="149" x="941" y="179.809"/><text fill="#000000" font-family="sans-serif" font-size="14" lengthAdjust="spacing" textLength="129" x="951" y="204.7749">3.0 Generate Alerts</text></g><!--entity ds1--><g id="elem_ds1"><path d="M1259,103.309 C1259,93.309 1323,93.309 1323,93.309 C1323,93.309 1387,93.309 1387,103.309 L1387,131.3769 C1387,141.3769 1323,141.3769 1323,141.3769 C1323,141.3769 1259,141.3769 1259,131.3769 L1259,103.309 " fill="#F1F1F1" style="stroke:#181818;stroke-width:0.5;"/><path d="M1259,103.309 C1259,113.309 1323,113.309 1323,113.309 C1323,113.309 1387,113.309 1387,103.309 " fill="none" style="stroke:#181818;stroke-width:0.5;"/><text fill="#000000" font-family="sans-serif" font-size="14" lengthAdjust="spacing" textLength="108" x="1269" y="132.2749">D1 Readings DB</text></g><!--entity ds2--><g id="elem_ds2"><path d="M1120,277.309 C1120,267.309 1168.5,267.309 1168.5,267.309 C1168.5,267.309 1217,267.309 1217,277.309 L1217,305.3769 C1217,315.3769 1168.5,315.3769 1168.5,315.3769 C1168.5,315.3769 1120,315.3769 1120,305.3769 L1120,277.309 " fill="#F1F1F1" style="stroke:#181818;stroke-width:0.5;"/><path d="M1120,277.309 C1120,287.309 1168.5,287.309 1168.5,287.309 C1168.5,287.309 1217,287.309 1217,277.309 " fill="none" style="stroke:#181818;stroke-width:0.5;"/><text fill="#000000" font-family="sans-serif" font-size="14" lengthAdjust="spacing" textLength="77" x="1130" y="306.2749">D2 Risk Log</text></g><!--link ext_sensor to p1--><g id="link_ext_sensor_p1"><path d="M122.02,114.309 C176.08,114.309 252.51,114.309 315.76,114.309 " fill="none" id="ext_sensor-to-p1" style="stroke:#181818;stroke-width:1.0;"/><polygon fill="#181818" points="321.76,114.309,312.76,110.309,316.76,114.309,312.76,118.309,321.76,114.309" style="stroke:#181818;stroke-width:1.0;"/><text fill="#000000" font-family="sans-serif" font-size="13" lengthAdjust="spacing" textLength="138" x="153" y="110.206">raw_temp_humid_data</text></g><!--link p1 to ds1--><g id="link_p1_ds1"><path d="M505.25,114.609 C688.96,115.219 1094.81,116.5592 1252.72,117.0792 " fill="none" id="p1-to-ds1" style="stroke:#181818;stroke-width:1.0;"/><polygon fill="#181818" points="1258.72,117.099,1249.7332,113.0694,1253.72,117.0825,1249.7069,121.0693,1258.72,117.099" style="stroke:#181818;stroke-width:1.0;"/><text fill="#000000" font-family="sans-serif" font-size="13" lengthAdjust="spacing" textLength="83" x="827" y="112.206">store_reading</text></g><!--link p1 to p2--><g id="link_p1_p2"><path d="M461.42,133.809 C483.48,142.469 510.3,152.269 535,159.309 C580.92,172.409 628.0688,181.8207 667.8488,188.7407 " fill="none" id="p1-to-p2" style="stroke:#181818;stroke-width:1.0;"/><polygon fill="#181818" points="673.76,189.769,665.5787,184.2857,668.834,188.9121,664.2076,192.1674,673.76,189.769" style="stroke:#181818;stroke-width:1.0;"/><text fill="#000000" font-family="sans-serif" font-size="13" lengthAdjust="spacing" textLength="107" x="536" y="155.206">validated_reading</text></g><!--link p2 to ds2--><g id="link_p2_ds2"><path d="M796.28,218.329 C806.16,221.179 816.33,223.949 826,226.309 C929.91,251.709 1047.7174,272.1386 1114.0074,282.8886 " fill="none" id="p2-to-ds2" style="stroke:#181818;stroke-width:1.0;"/><polygon fill="#181818" points="1119.93,283.849,1111.6864,278.4599,1114.9945,283.0486,1110.4058,286.3567,1119.93,283.849" style="stroke:#181818;stroke-width:1.0;"/><text fill="#000000" font-family="sans-serif" font-size="13" lengthAdjust="spacing" textLength="55" x="841" y="222.206">ari_result</text></g><!--link p2 to p3--><g id="link_p2_p3"><path d="M796.09,199.309 C838.54,199.309 889.7,199.309 934.89,199.309 " fill="none" id="p2-to-p3" style="stroke:#181818;stroke-width:1.0;"/><polygon fill="#181818" points="940.89,199.309,931.89,195.309,935.89,199.309,931.89,203.309,940.89,199.309" style="stroke:#181818;stroke-width:1.0;"/><text fill="#000000" font-family="sans-serif" font-size="13" lengthAdjust="spacing" textLength="76" x="830.5" y="195.206">risk_decision</text></g><!--link p3 to ext_gate--><g id="link_p3_ext_gate"><path d="M1090.06,214.499 C1100.08,216.079 1110.27,217.419 1120,218.309 C1161.76,222.109 1202.5623,221.2233 1240.5823,218.7833 " fill="none" id="p3-to-ext_gate" style="stroke:#181818;stroke-width:1.0;"/><polygon fill="#181818" points="1246.57,218.399,1237.3323,214.9836,1241.5803,218.7192,1237.8447,222.9672,1246.57,218.399" style="stroke:#181818;stroke-width:1.0;"/><text fill="#000000" font-family="sans-serif" font-size="13" lengthAdjust="spacing" textLength="86" x="1125.5" y="214.206">alert_message</text></g><!--link ext_dash to p1--><g id="link_ext_dash_p1"><path d="M1581.94,88.269 C1518.26,61.639 1416.39,26.309 1324,26.309 C734,26.309 734,26.309 734,26.309 C631.59,26.309 522.6411,66.4768 462.4011,92.4068 " fill="none" id="ext_dash-to-p1" style="stroke:#181818;stroke-width:1.0;"/><polygon fill="#181818" points="456.89,94.779,466.7382,94.8947,461.4826,92.8021,463.5752,87.5466,456.89,94.779" style="stroke:#181818;stroke-width:1.0;"/><text fill="#000000" font-family="sans-serif" font-size="13" lengthAdjust="spacing" textLength="93" x="969" y="22.206">query_readings</text></g><!--link ds1 to ext_dash--><g id="link_ds1_ext_dash"><path d="M1387.04,117.309 C1440.72,117.309 1511.81,117.309 1567.72,117.309 " fill="none" id="ds1-to-ext_dash" style="stroke:#181818;stroke-width:1.0;"/><polygon fill="#181818" points="1573.72,117.309,1564.72,113.309,1568.72,117.309,1564.72,121.309,1573.72,117.309" style="stroke:#181818;stroke-width:1.0;"/><text fill="#000000" font-family="sans-serif" font-size="13" lengthAdjust="spacing" textLength="113" x="1430" y="113.206">live_historical_data</text></g><!--link ds2 to ext_dash--><g id="link_ds2_ext_dash"><path d="M1217.42,295.369 C1264.79,297.789 1338.73,297.199 1399,277.309 C1483.91,249.289 1563.4462,188.3841 1607.9462,150.4041 " fill="none" id="ds2-to-ext_dash" style="stroke:#181818;stroke-width:1.0;"/><polygon fill="#181818" points="1612.51,146.509,1603.0676,149.3091,1608.7068,149.7549,1608.2611,155.3942,1612.51,146.509" style="stroke:#181818;stroke-width:1.0;"/><text fill="#000000" font-family="sans-serif" font-size="13" lengthAdjust="spacing" textLength="66" x="1290" y="273.206">risk_trends</text></g><!--link p3 to ds1--><g id="link_p3_ds1"><path d="M1090.14,187.959 C1128.4,181.219 1175.66,171.589 1217,159.309 C1233.66,154.359 1245.7847,150.0611 1261.7947,143.6111 " fill="none" id="p3-to-ds1" style="stroke:#181818;stroke-width:1.0;"/><polygon fill="#181818" points="1267.36,141.369,1257.5173,141.022,1262.7222,143.2374,1260.5068,148.4424,1267.36,141.369" style="stroke:#181818;stroke-width:1.0;"/><text fill="#000000" font-family="sans-serif" font-size="13" lengthAdjust="spacing" textLength="90" x="1123.5" y="155.206">alert_log_entry</text></g><!--SRC=[TPBHQzim4CRVzLSSVMePNHVdhPH0qvHGQ4g9NmVYOjqS4LdoT7BRCFQ_xnJ7hZVOaz5zl-_kEycEVYH80QAjzmcCZLGb6xpYW_KjHcmWLz3NZk2N0bXYTQXZwBnv22v4UCw-CX6vfUj8_LRgaxyeoRCmBy4GV_UNZ-Nhl80li2utLnU03FIHDFVCtPqSA7fqYyMqnIRih7nNoFjTm6X6dv7AVrtbfhnvRD0wM6EYTpoEjbhEVzkcljdNR_20RUeYmJdy2XEUtEriIXP2liPG4JFSRvzwefWISo7Mv2dcYVUEOkAUcYjbfEaEMQZL3BQ4nlgQORKy0OPdKw20hUK3F8Vwh1PAJIxk-deXqU0M8hxhH4shzrrZZSuTb0XPbuu2S0gHTEod3L9RYFA6pWfFvbCjpiOiOxGYSEVIK6_dUQ34qeOgo_c7aL9MnZiMMzvPDt93M9CQtsmC_BEZU1mciieXXmudy1QSVIEzjpcuhT3rE-LC_t2d92cIDppaw5Vk8xXGQ_8f7ly0]--></g></svg>