<?xml version="1.0" encoding="us-ascii" standalone="no"?><svg xmlns="http://www.w3.org/2000/svg" xmlns:xlink="http://www.w3.org/1999/xlink" contentStyleType="text/css" height="436px" preserveAspectRatio="none" style="width:411px;height:436px;background:#FFFFFF;" version="1.1" viewBox="0 0 411 436" width="411px" zoomAndPan="magnify"><defs/><g><!--cluster Smart?Stua System (GSM?based)--><g id="cluster_Smart&#8209;Stua System (GSM&#8209;based)"><rect fill="none" height="423" rx="2.5" ry="2.5" style="stroke:#181818;stroke-width:1.0;" width="255" x="150" y="7"/><text fill="#000000" font-family="sans-serif" font-size="14" font-weight="bold" lengthAdjust="spacing" textLength="224" x="165.5" y="23.9659">Smart&#8209;Stua System (GSM&#8209;based)</text></g><g id="elem_UC1"><ellipse cx="277.4255" cy="148.0851" fill="#F1F1F1" rx="95.9255" ry="21.5851" style="stroke:#181818;stroke-width:0.5;"/><text fill="#000000" font-family="sans-serif" font-size="14" lengthAdjust="spacing" textLength="145" x="201.9255" y="152.8181">View Dashboard / ARI</text></g><g id="elem_UC2"><ellipse cx="277.4545" cy="67.9909" fill="#F1F1F1" rx="102.9545" ry="22.9909" style="stroke:#181818;stroke-width:0.5;"/><text fill="#000000" font-family="sans-serif" font-size="14" lengthAdjust="spacing" textLength="162" x="193.4545" y="72.7239">Receive SMS/Email Alert</text></g><g id="elem_UC3"><ellipse cx="277.4938" cy="309.1988" fill="#F1F1F1" rx="111.4938" ry="24.6988" style="stroke:#181818;stroke-width:0.5;"/><text fill="#000000" font-family="sans-serif" font-size="14" lengthAdjust="spacing" textLength="182" x="183.4938" y="313.9317">Configure Alert Thresholds</text></g><g id="elem_UC4"><ellipse cx="277.5317" cy="390.9063" fill="#F1F1F1" rx="100.0317" ry="22.4063" style="stroke:#181818;stroke-width:0.5;"/><text fill="#000000" font-family="sans-serif" font-size="14" lengthAdjust="spacing" textLength="155" x="197.0317" y="395.6393">Manage User Accounts</text></g><g id="elem_UC5"><ellipse cx="277.6173" cy="226.8235" fill="#F1F1F1" rx="99.6173" ry="22.3235" style="stroke:#181818;stroke-width:0.5;"/><text fill="#000000" font-family="sans-serif" font-size="14" lengthAdjust="spacing" textLength="154" x="197.6173" y="231.5564">View Historical Reports</text></g><!--entity F--><g id="elem_F"><ellipse cx="56" cy="49" fill="#F1F1F1" rx="8" ry="8" style="stroke:#181818;stroke-width:0.5;"/><path d="M56,57 L56,84 M43,65 L69,65 M56,84 L43,99 M56,84 L69,99 " fill="none" style="stroke:#181818;stroke-width:0.5;"/><text fill="#000000" font-family="sans-serif" font-size="14" lengthAdjust="spacing" textLength="48" x="32" y="115.4659">Farmer</text></g><!--entity SM--><g id="elem_SM"><ellipse cx="56" cy="185" fill="#F1F1F1" rx="8" ry="8" style="stroke:#181818;stroke-width:0.5;"/><path d="M56,193 L56,220 M43,201 L69,201 M56,220 L43,235 M56,220 L69,235 " fill="none" style="stroke:#181818;stroke-width:0.5;"/><text fill="#000000" font-family="sans-serif" font-size="14" lengthAdjust="spacing" textLength="100" x="6" y="251.4659">Store Manager</text></g><!--entity SA--><g id="elem_SA"><ellipse cx="56" cy="324" fill="#F1F1F1" rx="8" ry="8" style="stroke:#181818;stroke-width:0.5;"/><path d="M56,332 L56,359 M43,340 L69,340 M56,359 L43,374 M56,359 L69,374 " fill="none" style="stroke:#181818;stroke-width:0.5;"/><text fill="#000000" font-family="sans-serif" font-size="14" lengthAdjust="spacing" textLength="96" x="8" y="390.4659">System Admin</text></g><!--link F to UC1--><g id="link_F_UC1"><path d="M80.03,87.79 C97.1,93.51 120.95,101.4 142,108 C166.87,115.79 188.6948,122.3636 212.3748,129.3436 " fill="none" id="F-to-UC1" style="stroke:#181818;stroke-width:1.0;"/><polygon fill="#181818" points="218.13,131.04,210.6282,124.6586,213.334,129.6263,208.3663,132.3322,218.13,131.04" style="stroke:#181818;stroke-width:1.0;"/></g><!--link F to UC2--><g id="link_F_UC2"><path d="M80.08,78.74 C103.41,77.46 135.1089,75.7265 171.2589,73.7565 " fill="none" id="F-to-UC2" style="stroke:#181818;stroke-width:1.0;"/><polygon fill="#181818" points="177.25,73.43,168.0457,69.9257,172.2574,73.7021,168.481,77.9138,177.25,73.43" style="stroke:#181818;stroke-width:1.0;"/></g><!--link SM to UC1--><g id="link_SM_UC1"><path d="M106.31,198.74 C117.98,194.78 130.4,190.66 142,187 C166.35,179.32 187.5815,173.0306 210.9615,166.3406 " fill="none" id="SM-to-UC1" style="stroke:#181818;stroke-width:1.0;"/><polygon fill="#181818" points="216.73,164.69,206.9769,163.3203,211.9229,166.0655,209.1777,171.0116,216.73,164.69" style="stroke:#181818;stroke-width:1.0;"/></g><!--link SM to UC2--><g id="link_SM_UC2"><path d="M79.98,176.37 C94.98,153.68 116.5,126.36 142,109 C158.95,97.46 173.5259,90.8464 193.1659,84.7964 " fill="none" id="SM-to-UC2" style="stroke:#181818;stroke-width:1.0;"/><polygon fill="#181818" points="198.9,83.03,189.1213,81.8568,194.1216,84.502,191.4764,89.5023,198.9,83.03" style="stroke:#181818;stroke-width:1.0;"/></g><!--link SM to UC3--><g id="link_SM_UC3"><path d="M106.27,248.25 C117.73,254.98 130.07,261.65 142,267 C162.09,276.01 178.9459,282.1036 199.7859,288.5236 " fill="none" id="SM-to-UC3" style="stroke:#181818;stroke-width:1.0;"/><polygon fill="#181818" points="205.52,290.29,198.0965,283.8176,200.7416,288.818,195.7412,291.463,205.52,290.29" style="stroke:#181818;stroke-width:1.0;"/></g><!--link SM to UC5--><g id="link_SM_UC5"><path d="M106.26,218.47 C128.13,219.56 148.6575,220.5897 174.1975,221.8697 " fill="none" id="SM-to-UC5" style="stroke:#181818;stroke-width:1.0;"/><polygon fill="#181818" points="180.19,222.17,171.4015,217.7245,175.1963,221.9197,171.0011,225.7145,180.19,222.17" style="stroke:#181818;stroke-width:1.0;"/></g><!--link SA to UC4--><g id="link_SA_UC4"><path d="M104.09,362.72 C130.92,367.12 159.3492,371.7885 190.3092,376.8685 " fill="none" id="SA-to-UC4" style="stroke:#181818;stroke-width:1.0;"/><polygon fill="#181818" points="196.23,377.84,187.9964,372.4355,191.296,377.0304,186.7011,380.33,196.23,377.84" style="stroke:#181818;stroke-width:1.0;"/></g><!--link SA to UC3--><g id="link_SA_UC3"><path d="M104.09,345.13 C130.92,339.51 159.3976,333.541 190.3576,327.051 " fill="none" id="SA-to-UC3" style="stroke:#181818;stroke-width:1.0;"/><polygon fill="#181818" points="196.23,325.82,186.6008,323.7516,191.3364,326.8458,188.2421,331.5814,196.23,325.82" style="stroke:#181818;stroke-width:1.0;"/></g><!--SRC=[PP11JiCm44NtFiKeArXK5KsxHR8A0HRPn9Jzr9acbXmRZHqGGaXSWIjo4jmqJIEniRx_Vnhz6Kk72D43cwQDK1ic7Ort0dNq30LoHmmOe1YTJAMNe4I73N5sZ5GvPHyXKWUoxemxHLA8uqHqZQMKTyZnz_j7nHvXXAyUL9ciFGQghpFu501z89s-aBqOUeSx3EtU8zUm15az3NDtsvivLv4cyqQfYLhUTsWiI4iSHtGrHxVU7KpJfnK619vRfj1wMuUHpkVqQKtOXNG4gRNlNJnpwtz57qr8Lp0QBLJqwdb2D-9BY08MYzkX-5cjX2edSv8pDx_8ZL1obEkBpFy0]--></g></svg>